<svg xmlns="http://www.w3.org/2000/svg" width="424.007" height="372.5" viewBox="0 0 424.007 372.5">
  <g id="BREADCRUMB" transform="translate(0.004)">
    <g id="Group_102" data-name="Group 102" transform="translate(-34 -576)">
      <line id="Line_18" data-name="Line 18" x2="17" transform="translate(158 586.5)" fill="none" stroke="#000" stroke-linecap="round" stroke-width="1"/>
      <path id="Path_349" data-name="Path 349" d="M769.816,2869.745h7.922v7.661" transform="translate(1657.771 -1992.568) rotate(45)" fill="none" stroke="#000" stroke-linecap="round" stroke-linejoin="round" stroke-width="1"/>
    </g>
    <g id="CATEGORY">
      <g id="BACKGROUND" fill="none" stroke="#000" stroke-width="1">
        <rect width="114" height="20" stroke="none"/>
        <rect x="0.5" y="0.5" width="113" height="19" fill="none"/>
      </g>
      <text id="LABEL" transform="translate(57 16)" font-size="16" font-family="IBMPlexMono-Medium, IBM Plex Mono" font-weight="500"><tspan x="-48" y="0">BREADCRUMB</tspan></text>
    </g>
  </g>
  <g id="BREADCRUMB-2" data-name="BREADCRUMB" transform="translate(170.004)">
    <g id="Group_102-2" data-name="Group 102" transform="translate(-34 -576)">
      <line id="Line_18-2" data-name="Line 18" x2="17" transform="translate(158 586.5)" fill="none" stroke="#000" stroke-linecap="round" stroke-width="1"/>
      <path id="Path_349-2" data-name="Path 349" d="M769.816,2869.745h7.922v7.661" transform="translate(1657.771 -1992.568) rotate(45)" fill="none" stroke="#000" stroke-linecap="round" stroke-linejoin="round" stroke-width="1"/>
    </g>
    <g id="CATEGORY-2" data-name="CATEGORY">
      <g id="BACKGROUND-2" data-name="BACKGROUND" fill="none" stroke="#000" stroke-width="1">
        <rect width="114" height="20" stroke="none"/>
        <rect x="0.5" y="0.5" width="113" height="19" fill="none"/>
      </g>
      <text id="LABEL-2" data-name="LABEL" transform="translate(57 16)" font-size="16" font-family="IBMPlexMono-Medium, IBM Plex Mono" font-weight="500"><tspan x="-48" y="0">BREADCRUMB</tspan></text>
    </g>
  </g>
  <g id="SIDE_COLUMN" data-name="SIDE COLUMN" transform="translate(0.004 62.5)">
    <line id="Line_19" data-name="Line 19" y1="3" x2="424" transform="translate(0 22)" fill="none" stroke="#000" stroke-width="1"/>
    <line id="Line_20" data-name="Line 20" y1="3" x2="424" transform="translate(0 84)" fill="none" stroke="#000" stroke-width="1"/>
    <line id="Line_21" data-name="Line 21" y1="3" x2="424" transform="translate(0 146)" fill="none" stroke="#000" stroke-width="1"/>
    <line id="Line_22" data-name="Line 22" y1="3" x2="424" transform="translate(0 208)" fill="none" stroke="#000" stroke-width="1"/>
    <line id="Line_23" data-name="Line 23" y1="3" x2="424" transform="translate(0 270)" fill="none" stroke="#000" stroke-width="1"/>
    <text id="AUTHOR" transform="translate(0 2)" font-size="16" font-family="IBMPlexMono-Medium, IBM Plex Mono" font-weight="500"><tspan x="0" y="16">AUTHOR</tspan></text>
    <text id="TOPIC" transform="translate(0 64)" font-size="16" font-family="IBMPlexMono-Medium, IBM Plex Mono" font-weight="500"><tspan x="0" y="16">TOPIC</tspan></text>
    <text id="MEDIUM" transform="translate(0 126)" font-size="16" font-family="IBMPlexMono-Medium, IBM Plex Mono" font-weight="500"><tspan x="0" y="16">MEDIUM</tspan></text>
    <text id="YEAR" transform="translate(0 188)" font-size="16" font-family="IBMPlexMono-Medium, IBM Plex Mono" font-weight="500"><tspan x="0" y="16">YEAR</tspan></text>
    <text id="KEYWORDS" transform="translate(0 250)" font-size="16" font-family="IBMPlexMono-Medium, IBM Plex Mono" font-weight="500"><tspan x="0" y="16">KEYWORDS</tspan></text>
    <text id="TEXT" transform="translate(0 28)" font-size="16" font-family="IBMPlexMono-Medium, IBM Plex Mono" font-weight="500"><tspan x="0" y="16">TEXT</tspan></text>
    <text id="TEXT-2" data-name="TEXT" transform="translate(0 91)" font-size="16" font-family="IBMPlexMono-Medium, IBM Plex Mono" font-weight="500"><tspan x="0" y="16">TEXT</tspan></text>
    <text id="TEXT-3" data-name="TEXT" transform="translate(0 153)" font-size="16" font-family="IBMPlexMono-Medium, IBM Plex Mono" font-weight="500"><tspan x="0" y="16">TEXT</tspan></text>
    <text id="INTEGER" transform="translate(0 214)" font-size="16" font-family="IBMPlexMono-Medium, IBM Plex Mono" font-weight="500"><tspan x="0" y="16">INTEGER</tspan></text>
    <g id="ARROW" transform="translate(407 62)">
      <g id="Group_107" data-name="Group 107" transform="translate(0 17) rotate(-90)">
        <circle id="Ellipse_9" data-name="Ellipse 9" cx="8.5" cy="8.5" r="8.5"/>
        <path id="Path_22" data-name="Path 22" d="M0,0H7.922V7.661" transform="translate(14.01 6.407) rotate(135)" fill="none" stroke="#000" stroke-linecap="round" stroke-linejoin="round" stroke-width="1"/>
        <path id="Path_348" data-name="Path 348" d="M0,0H7.922V7.661" transform="translate(14.01 6.407) rotate(135)" fill="none" stroke="#fff" stroke-linecap="round" stroke-linejoin="round" stroke-width="1"/>
      </g>
    </g>
    <g id="ARROW-2" data-name="ARROW" transform="translate(407 124)">
      <g id="Group_107-2" data-name="Group 107" transform="translate(0 17) rotate(-90)">
        <circle id="Ellipse_9-2" data-name="Ellipse 9" cx="8.5" cy="8.5" r="8.5"/>
        <path id="Path_22-2" data-name="Path 22" d="M0,0H7.922V7.661" transform="translate(14.01 6.407) rotate(135)" fill="none" stroke="#000" stroke-linecap="round" stroke-linejoin="round" stroke-width="1"/>
        <path id="Path_348-2" data-name="Path 348" d="M0,0H7.922V7.661" transform="translate(14.01 6.407) rotate(135)" fill="none" stroke="#fff" stroke-linecap="round" stroke-linejoin="round" stroke-width="1"/>
      </g>
    </g>
    <g id="ARROW-3" data-name="ARROW" transform="translate(407 186)">
      <g id="Group_107-3" data-name="Group 107" transform="translate(0 17) rotate(-90)">
        <circle id="Ellipse_9-3" data-name="Ellipse 9" cx="8.5" cy="8.5" r="8.5"/>
        <path id="Path_22-3" data-name="Path 22" d="M0,0H7.922V7.661" transform="translate(14.01 6.407) rotate(135)" fill="none" stroke="#000" stroke-linecap="round" stroke-linejoin="round" stroke-width="1"/>
        <path id="Path_348-3" data-name="Path 348" d="M0,0H7.922V7.661" transform="translate(14.01 6.407) rotate(135)" fill="none" stroke="#fff" stroke-linecap="round" stroke-linejoin="round" stroke-width="1"/>
      </g>
    </g>
    <g id="ARROW-4" data-name="ARROW" transform="translate(407 248)">
      <g id="Group_107-4" data-name="Group 107" transform="translate(0 17) rotate(-90)">
        <circle id="Ellipse_9-4" data-name="Ellipse 9" cx="8.5" cy="8.5" r="8.5"/>
        <path id="Path_22-4" data-name="Path 22" d="M0,0H7.922V7.661" transform="translate(14.01 6.407) rotate(135)" fill="none" stroke="#000" stroke-linecap="round" stroke-linejoin="round" stroke-width="1"/>
        <path id="Path_348-4" data-name="Path 348" d="M0,0H7.922V7.661" transform="translate(14.01 6.407) rotate(135)" fill="none" stroke="#fff" stroke-linecap="round" stroke-linejoin="round" stroke-width="1"/>
      </g>
    </g>
    <g id="ARROW-5" data-name="ARROW" transform="translate(407)">
      <g id="Group_107-5" data-name="Group 107" transform="translate(0 17) rotate(-90)">
        <circle id="Ellipse_9-5" data-name="Ellipse 9" cx="8.5" cy="8.5" r="8.5"/>
        <path id="Path_22-5" data-name="Path 22" d="M0,0H7.922V7.661" transform="translate(14.01 6.407) rotate(135)" fill="none" stroke="#000" stroke-linecap="round" stroke-linejoin="round" stroke-width="1"/>
        <path id="Path_348-5" data-name="Path 348" d="M0,0H7.922V7.661" transform="translate(14.01 6.407) rotate(135)" fill="none" stroke="#fff" stroke-linecap="round" stroke-linejoin="round" stroke-width="1"/>
      </g>
    </g>
    <g id="LABEL-3" data-name="LABEL" transform="translate(12 290)">
      <g id="Group_176" data-name="Group 176" transform="translate(-4290 -2762)">
        <rect id="BACKGROUND-3" data-name="BACKGROUND" width="79.81" height="18" rx="9" transform="translate(4290 2764)"/>
        <text id="LABEL-4" data-name="LABEL" transform="translate(4344 2778)" fill="#fff" font-size="16" font-family="IBMPlexMono-Medium, IBM Plex Mono" font-weight="500"><tspan x="-48" y="0">LABEL</tspan></text>
        <g id="CROSS" transform="translate(4353.176 2766.763)">
          <g id="Group_48" data-name="Group 48">
            <line id="Line_8" data-name="Line 8" x2="9.633" y2="9.633" transform="translate(-1 1)" fill="none" stroke="#fff" stroke-width="2"/>
            <line id="Line_9" data-name="Line 9" x2="9.633" y2="9.633" transform="translate(8.633 1) rotate(90)" fill="none" stroke="#fff" stroke-width="2"/>
          </g>
        </g>
      </g>
    </g>
    <g id="LABEL-5" data-name="LABEL" transform="translate(117.81 290)">
      <g id="Group_176-2" data-name="Group 176" transform="translate(-4290 -2762)">
        <rect id="BACKGROUND-4" data-name="BACKGROUND" width="79.81" height="18" rx="9" transform="translate(4290 2764)"/>
        <text id="LABEL-6" data-name="LABEL" transform="translate(4344 2778)" fill="#fff" font-size="16" font-family="IBMPlexMono-Medium, IBM Plex Mono" font-weight="500"><tspan x="-48" y="0">LABEL</tspan></text>
        <g id="CROSS-2" data-name="CROSS" transform="translate(4353.176 2766.763)">
          <g id="Group_48-2" data-name="Group 48">
            <line id="Line_8-2" data-name="Line 8" x2="9.633" y2="9.633" transform="translate(-1 1)" fill="none" stroke="#fff" stroke-width="2"/>
            <line id="Line_9-2" data-name="Line 9" x2="9.633" y2="9.633" transform="translate(8.633 1) rotate(90)" fill="none" stroke="#fff" stroke-width="2"/>
          </g>
        </g>
      </g>
    </g>
    <g id="LABEL-7" data-name="LABEL" transform="translate(223.619 290)">
      <g id="Group_176-3" data-name="Group 176" transform="translate(-4290 -2762)">
        <rect id="BACKGROUND-5" data-name="BACKGROUND" width="79.81" height="18" rx="9" transform="translate(4290 2764)"/>
        <text id="LABEL-8" data-name="LABEL" transform="translate(4344 2778)" fill="#fff" font-size="16" font-family="IBMPlexMono-Medium, IBM Plex Mono" font-weight="500"><tspan x="-48" y="0">LABEL</tspan></text>
        <g id="CROSS-3" data-name="CROSS" transform="translate(4353.176 2766.763)">
          <g id="Group_48-3" data-name="Group 48">
            <line id="Line_8-3" data-name="Line 8" x2="9.633" y2="9.633" transform="translate(-1 1)" fill="none" stroke="#fff" stroke-width="2"/>
            <line id="Line_9-3" data-name="Line 9" x2="9.633" y2="9.633" transform="translate(8.633 1) rotate(90)" fill="none" stroke="#fff" stroke-width="2"/>
          </g>
        </g>
      </g>
    </g>
    <g id="LABEL-9" data-name="LABEL" transform="translate(329.429 290)">
      <g id="Group_176-4" data-name="Group 176" transform="translate(-4290 -2762)">
        <rect id="BACKGROUND-6" data-name="BACKGROUND" width="79.81" height="18" rx="9" transform="translate(4290 2764)"/>
        <text id="LABEL-10" data-name="LABEL" transform="translate(4344 2778)" fill="#fff" font-size="16" font-family="IBMPlexMono-Medium, IBM Plex Mono" font-weight="500"><tspan x="-48" y="0">LABEL</tspan></text>
        <g id="CROSS-4" data-name="CROSS" transform="translate(4353.176 2766.763)">
          <g id="Group_48-4" data-name="Group 48">
            <line id="Line_8-4" data-name="Line 8" x2="9.633" y2="9.633" transform="translate(-1 1)" fill="none" stroke="#fff" stroke-width="2"/>
            <line id="Line_9-4" data-name="Line 9" x2="9.633" y2="9.633" transform="translate(8.633 1) rotate(90)" fill="none" stroke="#fff" stroke-width="2"/>
          </g>
        </g>
      </g>
    </g>
  </g>
</svg>
