<?xml version="1.0" encoding="utf-8"?>
<!-- Generator: Adobe Illustrator 27.8.0, SVG Export Plug-In . SVG Version: 6.00 Build 0)  -->
<svg version="1.1" id="Ebene_1" xmlns="http://www.w3.org/2000/svg" xmlns:xlink="http://www.w3.org/1999/xlink" x="0px" y="0px"
	 viewBox="0 0 24 24" style="enable-background:new 0 0 24 24;" xml:space="preserve">
<style type="text/css">
	.st0{fill:#FFFFFF;}
</style>
<path d="M12,0C5.4,0,0,5.4,0,12s5.4,12,12,12s12-5.4,12-12S18.6,0,12,0"/>
<path class="st0" d="M12,6.1c1.9,0,2.2,0,2.9,0c2,0.1,2.9,1,3,3c0,0.8,0,1,0,2.9s0,2.2,0,2.9c-0.1,1.9-1,2.9-3,3c-0.8,0-1,0-2.9,0
	s-2.2,0-2.9,0c-2-0.1-2.9-1-3-3c0-0.8,0-1,0-2.9s0-2.2,0-2.9c0.1-1.9,1-2.9,3-3C9.8,6.1,10.1,6.1,12,6.1z M12,4.8c-2,0-2.2,0-3,0
	C6.4,4.9,4.9,6.4,4.8,9c0,0.8,0,1,0,3s0,2.2,0,3c0.1,2.6,1.6,4.1,4.2,4.2c0.8,0,1,0,3,0s2.2,0,3,0c2.6-0.1,4.1-1.6,4.2-4.2
	c0-0.8,0-1,0-3s0-2.2,0-3c-0.1-2.6-1.6-4.1-4.2-4.2C14.2,4.8,14,4.8,12,4.8z M12,8.3C9.9,8.3,8.3,10,8.3,12s1.7,3.7,3.7,3.7
	s3.7-1.7,3.7-3.7C15.7,9.9,14.1,8.3,12,8.3z M12,14.4c-1.3,0-2.4-1.1-2.4-2.4s1.1-2.4,2.4-2.4s2.4,1.1,2.4,2.4S13.3,14.4,12,14.4z
	 M15.9,7.3c-0.5,0-0.9,0.4-0.9,0.9S15.4,9,15.9,9s0.9-0.4,0.9-0.9S16.3,7.3,15.9,7.3z"/>
</svg>
