<?xml version="1.0" standalone="no"?>
<!DOCTYPE svg PUBLIC "-//W3C//DTD SVG 20010904//EN"
 "http://www.w3.org/TR/2001/REC-SVG-20010904/DTD/svg10.dtd">
<svg version="1.0" xmlns="http://www.w3.org/2000/svg"
 width="700.000000pt" height="700.000000pt" viewBox="0 0 700.000000 700.000000"
 preserveAspectRatio="xMidYMid meet">
<metadata>
Created by potrace 1.14, written by Peter Selinger 2001-2017
</metadata>
<g transform="translate(0.000000,700.000000) scale(0.100000,-0.100000)"
fill="#000000" stroke="none">
<path d="M3280 6994 c-19 -2 -84 -9 -145 -14 -639 -62 -1264 -315 -1795 -726
-149 -115 -481 -446 -595 -594 -410 -532 -653 -1132 -727 -1795 -17 -155 -17
-575 0 -730 75 -673 332 -1300 748 -1820 114 -143 339 -372 484 -494 537 -451
1163 -717 1885 -803 142 -17 586 -17 730 0 682 79 1268 318 1802 734 138 107
389 351 512 498 451 538 717 1162 803 1885 16 139 16 595 0 730 -77 629 -275
1158 -620 1649 -234 333 -577 668 -917 896 -460 308 -968 495 -1535 566 -117
15 -552 27 -630 18z m-1047 -4102 l118 -118 -141 -184 -141 -184 140 -139 139
-140 177 132 c98 73 182 134 189 137 6 2 65 -49 130 -115 l119 -119 -44 -31
c-24 -17 -415 -287 -869 -600 l-825 -569 -158 157 -159 158 597 867 c328 476
600 866 604 866 3 0 59 -53 124 -118z m3867 -92 l0 -180 -1040 0 -1040 0 0
180 0 180 1040 0 1040 0 0 -180z m-2149 -207 c239 -242 280 -292 336 -408 37
-78 38 -83 38 -190 0 -106 -1 -113 -36 -185 -48 -99 -112 -182 -213 -277 -150
-140 -282 -199 -424 -191 -140 9 -245 67 -432 240 l-115 106 -302 -301 c-166
-166 -304 -299 -305 -296 -2 2 -57 60 -123 127 l-120 122 735 735 c404 404
737 735 740 735 4 0 103 -98 221 -217z m1437 -238 c554 -102 1019 -188 1035
-191 l27 -6 0 -224 c0 -140 -4 -224 -10 -224 -10 0 -2006 -366 -2047 -375
l-23 -5 0 173 0 172 158 23 c86 13 190 28 230 34 l72 10 0 199 c0 153 -3 199
-12 199 -18 0 -398 50 -425 56 -23 4 -23 6 -23 174 0 94 3 170 6 170 3 0 459
-83 1012 -185z m-521 -1427 c-3 -264 -8 -346 -21 -396 -51 -200 -172 -315
-377 -358 -112 -24 -332 -21 -432 5 -133 35 -235 103 -297 200 l-16 23 -451
-146 c-248 -80 -459 -149 -467 -152 -15 -6 -16 12 -14 176 l3 182 410 122
c226 67 417 125 425 128 12 4 14 22 10 94 l-5 89 -425 5 -425 5 -3 165 c-1 90
0 170 2 177 4 11 206 13 1047 13 l1041 0 -5 -332z"/>
<path d="M1622 1783 c-143 -197 -260 -359 -258 -361 2 -1 167 115 366 259
l362 262 -98 98 c-54 55 -101 99 -105 99 -3 0 -123 -161 -267 -357z"/>
<path d="M3547 2132 l-228 -228 83 -80 c189 -183 279 -184 458 -4 97 97 132
159 132 229 0 68 -31 120 -130 223 l-87 89 -228 -229z"/>
<path d="M5140 1935 l0 -145 23 5 c12 2 200 32 417 65 424 65 460 71 445 76
-9 3 -872 144 -881 144 -2 0 -4 -65 -4 -145z"/>
<path d="M3934 788 c15 -228 70 -273 332 -273 136 0 142 1 199 30 49 25 63 39
84 80 22 43 26 65 30 162 l3 113 -327 0 -328 0 7 -112z"/>
</g>
</svg>
