<?xml version="1.0" encoding="UTF-8"?>
<svg id="Layer_1" data-name="Layer 1" xmlns="http://www.w3.org/2000/svg" width="8.57mm" height="8.57mm" viewBox="0 0 24.29 24.29">
  <defs>
    <style>
      .cls-1 {
        stroke-width: 0px;
      }
    </style>
  </defs>
  <path class="cls-1" d="m24,22.59l-6.26-6.26c1.41-1.72,2.26-3.93,2.26-6.33C20,4.48,15.52,0,10,0,4.48,0,0,4.48,0,10c0,5.52,4.48,10,10,10,2.4,0,4.6-.85,6.33-2.26l6.26,6.26c.39.39,1.02.39,1.41,0s.39-1.02,0-1.41Zm-14-4.59c-4.41,0-8-3.59-8-8,0-4.41,3.59-8,8-8s8,3.59,8,8c0,4.41-3.59,8-8,8Z"/>
</svg>