<svg id="youtube" xmlns="http://www.w3.org/2000/svg" width="24" height="24" viewBox="0 0 24 24">
  <path id="Path_21" data-name="Path 21" d="M-48,12.453a18.146,18.146,0,0,1-.12,1.942,2.6,2.6,0,0,1-.477,1.192,1.715,1.715,0,0,1-1.2.508c-1.679.121-4.2.125-4.2.125s-3.12-.028-4.08-.121a2.031,2.031,0,0,1-1.323-.512A2.6,2.6,0,0,1-59.88,14.4,18.146,18.146,0,0,1-60,12.453v-.91A18.146,18.146,0,0,1-59.88,9.6,2.593,2.593,0,0,1-59.4,8.41,1.717,1.717,0,0,1-58.2,7.9c1.68-.121,4.2-.121,4.2-.121H-54s2.519,0,4.2.121a1.717,1.717,0,0,1,1.2.509A2.593,2.593,0,0,1-48.12,9.6,18.146,18.146,0,0,1-48,11.543ZM-54,0A12,12,0,0,0-66,12,12,12,0,0,0-54,24,12,12,0,0,0-42,12,12,12,0,0,0-54,0m-1.239,13.557L-52,11.877l-3.243-1.692Z" transform="translate(66)"/>
</svg>